<?xml version="1.0" standalone="no"?>
<!DOCTYPE svg PUBLIC "-//W3C//DTD SVG 20010904//EN"
 "http://www.w3.org/TR/2001/REC-SVG-20010904/DTD/svg10.dtd">
<svg version="1.0" xmlns="http://www.w3.org/2000/svg"
 width="363.000000pt" height="363.000000pt" viewBox="0 0 363.000000 363.000000"
 preserveAspectRatio="xMidYMid meet">
<metadata>
Created by potrace 1.11, written by Peter Selinger 2001-2013
</metadata>
<g transform="translate(0.000000,363.000000) scale(0.100000,-0.100000)"
fill="#000000" stroke="none">
<path d="M266 2824 c-302 -302 -295 -290 -225 -371 23 -26 45 -50 48 -53 3 -3
51 -54 106 -115 55 -60 102 -112 105 -115 5 -5 199 -218 215 -236 6 -6 28 -31
50 -55 22 -24 88 -96 145 -159 58 -63 123 -135 146 -160 23 -25 54 -58 69 -75
15 -16 62 -68 105 -115 101 -110 109 -119 210 -230 47 -52 112 -123 146 -159
56 -62 157 -171 179 -197 42 -47 183 -202 198 -216 10 -10 31 -18 51 -18 28 0
42 9 81 52 70 77 363 394 446 483 26 28 56 59 66 71 10 12 67 74 127 138 60
64 117 125 125 135 9 10 68 73 131 141 63 67 129 141 145 164 37 53 114 144
181 216 28 30 111 120 184 200 73 80 161 174 196 210 97 102 134 150 134 173
0 14 -86 108 -267 289 l-268 268 -1282 0 -1282 0 -265 -266z"/>
</g>
</svg>
